<svg xmlns="http://www.w3.org/2000/svg" width="53" height="53">
    <path fill="#FFF" fill-rule="evenodd" d="M26.5 53C11.888 53 0 41.112 0 26.5 0 11.887 11.888 0 26.5 0c.595 0 1.078.483 1.078 1.078 0 .596-.483 1.079-1.078 1.079-13.423 0-24.343 10.92-24.343 24.343 0 13.422 10.92 24.343 24.343 24.343S50.843 39.922 50.843 26.5c0-3.927-.906-7.676-2.693-11.141-1.705-3.307-4.192-6.227-7.192-8.445-.479-.354-.58-1.03-.226-1.509.355-.479 1.03-.58 1.509-.226 3.264 2.414 5.97 5.592 7.826 9.191C51.986 18.091 53 22.285 53 26.5 53 41.112 41.112 53 26.5 53zm.225-17.086c-.501.324-1.168.179-1.491-.322-.323-.501-.178-1.168.323-1.491l11.742-7.565-15.968-9.506v21.772c0 .595-.483 1.078-1.079 1.078-.595 0-1.079-.483-1.079-1.078V15.133c0-.388.209-.746.546-.938.337-.192.751-.188 1.085.011l19.094 11.367c.321.191.52.534.527.907.007.373-.18.724-.494.926l-13.206 8.508z"/>
</svg>
